<svg width="24" height="24" viewBox="0 0 24 24" fill="none" xmlns="http://www.w3.org/2000/svg">
<g clip-path="url(#clip0)">
<path d="M3.63281 0C9.71508 5.11113 15.7974 10.2223 21.9174 15.3658C21.6189 15.6355 21.3959 15.506 21.1872 15.4539C18.4626 14.7687 15.7416 14.0763 13.017 13.3929C12.6249 13.294 12.3084 13.1285 12.0692 12.7814C9.22232 8.67921 6.36641 4.58239 3.51591 0.481978C3.46735 0.41184 3.45117 0.318321 3.42059 0.235594C3.49073 0.158262 3.56267 0.0791308 3.63281 0Z" fill="white"/>
<path d="M21.3761 17.0095C18.6659 17.8404 15.9538 18.6731 13.2436 19.5003C12.9685 19.5849 12.7131 19.486 12.4631 19.3745C8.3393 17.5275 4.21731 15.6823 0.0935182 13.8335C0.0449607 13.8119 0.00899213 13.7616 0 13.5475C7.11637 14.623 14.2327 15.6967 21.3491 16.7721C21.3581 16.8513 21.3671 16.9304 21.3761 17.0095Z" fill="white"/>
<path d="M21.288 18.3997C21.3329 18.8781 21.0488 18.9968 20.8689 19.1694C19.486 20.4931 18.094 21.8095 16.7038 23.1242C16.4466 23.3688 16.211 23.6349 15.8064 23.6601C13.3048 23.822 10.8032 23.9964 8.24579 23.9982C12.5746 22.1404 16.907 20.2809 21.288 18.3997Z" fill="white"/>
</g>
<defs>
<clipPath id="clip0">
<rect width="21.9174" height="24" fill="white"/>
</clipPath>
</defs>
</svg>
