<svg width="24" height="24" viewBox="0 0 24 24" fill="none" xmlns="http://www.w3.org/2000/svg">
<path fill-rule="evenodd" clip-rule="evenodd" d="M3 4C1.89543 4 1 4.89543 1 6V18C1 19.1046 1.89543 20 3 20H21C22.1046 20 23 19.1046 23 18V6C23 4.89543 22.1046 4 21 4H3ZM9.35423 15.1335L9.81965 17H12.6122L9.48998 7H6.08339L3 17H5.80543L6.28378 15.1335H9.35423ZM8.41694 11.2916L8.82418 12.9264H6.81383C7.20599 11.3642 7.45809 10.3174 7.57014 9.7861C7.68649 9.25477 7.76406 8.8733 7.80284 8.64169C7.84594 8.89146 7.93428 9.30472 8.06787 9.88147C8.20577 10.4582 8.32213 10.9282 8.41694 11.2916ZM19.6942 15.6512C20.5648 14.752 21 13.4714 21 11.8093C21 10.2652 20.5863 9.08447 19.7589 8.26703C18.9358 7.44959 17.7658 7.04087 16.2489 7.04087H12.978V17H16.0356C17.6085 17 18.8281 16.5504 19.6942 15.6512ZM17.8326 9.87466C18.1773 10.3152 18.3497 10.9918 18.3497 11.9046C18.3497 12.881 18.1687 13.6076 17.8067 14.0845C17.4447 14.5568 16.8759 14.7929 16.1002 14.7929H15.5314V9.2139H16.2747C16.9729 9.2139 17.4921 9.43415 17.8326 9.87466Z" fill="white"/>
</svg>
