<svg width="24" height="24" viewBox="0 0 24 24" fill="none" xmlns="http://www.w3.org/2000/svg">
<path d="M20.0011 2.71412C20.0011 2.65602 20.0011 2.52721 20.0643 2.52721C20.154 2.52721 20.231 2.71664 20.26 2.79747C20.7463 4.3458 20.6099 6.24649 19.9153 8.38587C22.671 9.85842 24.2534 11.768 23.9667 13.5537C23.5878 15.9002 20.1426 17.2806 15.5052 17.1189C15.9573 16.634 16.5749 15.9204 17.0548 15.294C18.8405 14.9467 20.1211 14.2407 20.4558 13.1092C20.7008 12.287 20.135 11.3739 19.059 10.5151C17.2909 14.2382 14.337 17.5736 11.6078 19.5008C12.9314 21.188 14.164 22.3588 15.5721 23.0167C15.6239 23.042 15.7363 23.1064 15.6984 23.1645C15.6542 23.2428 15.4458 23.215 15.3675 23.1986C13.7826 22.8462 12.2102 21.7778 10.6947 20.1057C8.04261 21.7563 5.59635 22.1718 4.19325 21.0302C2.35066 19.5311 2.87729 15.8522 5.32987 11.9246C5.5231 12.556 5.83504 13.4502 6.13561 14.1776C5.54204 15.8989 5.51426 17.3601 6.32631 18.2189C6.91609 18.8415 7.98957 18.8087 9.27143 18.3061C6.9464 14.9113 5.5332 10.6856 5.2301 7.3528C3.10714 7.6559 1.47672 8.13707 0.203702 9.02743C0.155711 9.06026 0.043312 9.12593 0.00921334 9.06784C-0.0349887 8.98954 0.0913028 8.82789 0.145608 8.76348C1.24434 7.5675 2.95812 6.73524 5.15812 6.26796C5.05582 3.14351 5.91586 0.818484 7.60817 0.174397C9.82837 -0.671755 12.7482 1.62296 14.9242 5.71607C14.2789 5.56704 13.3519 5.38897 12.5702 5.28794C11.3767 3.91515 10.1239 3.1574 8.97591 3.43398C8.14238 3.63352 7.63469 4.57944 7.42884 5.93581C11.5371 5.60367 15.9017 6.49528 18.939 7.89964C19.7385 5.91561 20.1363 4.26245 20.0011 2.71412ZM10.403 17.7718C13.655 15.9128 16.292 13.0751 18.0411 9.80665C14.8017 7.92743 11.0281 7.05602 7.32528 7.17978C7.3177 10.9243 8.44927 14.631 10.4068 17.7731L10.403 17.7718Z" fill="white"/>
</svg>
