<svg width="24" height="24" viewBox="0 0 24 24" fill="none" xmlns="http://www.w3.org/2000/svg">
<g clip-path="url(#clip0)">
<path fill-rule="evenodd" clip-rule="evenodd" d="M21.997 10.6831L19.3535 9.20957C19.4443 9.73672 19.547 10.3207 19.6526 10.9199C19.6677 11.0055 19.6828 11.0914 19.698 11.1775L19.6981 11.178L19.6981 11.1781L19.6982 11.1787C19.8809 12.2151 20.0685 13.2789 20.2151 14.1584L16.2151 16.4523L14.4774 14.6821H8.7225L5.62333 17.83C5.29489 18.1249 4.86887 18.3222 4.37674 18.3222C3.42606 18.3222 2.63907 17.5362 2.63907 16.552C2.63907 16.5033 2.64716 16.4544 2.65527 16.4053C2.66342 16.356 2.6716 16.3066 2.6716 16.2571C2.6716 16.2571 3.45964 11.6338 3.91819 8.87935C4.37674 6.12489 6.14799 4.78072 8.27915 4.78072H11.408L3.40729 0.321043C2.60486 -0.10498 1.903 -0.0724511 1.46755 0.321043C1.16691 0.615901 1 1.07445 1 1.66522V22.3242C1 22.9139 1.16691 23.3735 1.46755 23.6684C1.90193 24.0944 2.60379 24.1269 3.40729 23.6684L21.997 13.3064C23.3343 12.6169 23.3343 11.4365 21.997 10.6831Z" fill="black"/>
<path d="M10.2802 8.74816H8.77131V7.23924H7.68946V8.74816H6.18054V9.83001H7.68946V11.3389H8.77131V9.83001H10.2802V8.74816V8.74816Z" fill="black"/>
<path d="M14.9036 8.48584C15.2838 8.48584 15.5919 8.17765 15.5919 7.79748C15.5919 7.41732 15.2838 7.10913 14.9036 7.10913C14.5234 7.10913 14.2152 7.41732 14.2152 7.79748C14.2152 8.17765 14.5234 8.48584 14.9036 8.48584Z" fill="black"/>
<path d="M14.9036 11.4691C15.2838 11.4691 15.5919 11.1609 15.5919 10.7807C15.5919 10.4005 15.2838 10.0923 14.9036 10.0923C14.5234 10.0923 14.2152 10.4005 14.2152 10.7807C14.2152 11.1609 14.5234 11.4691 14.9036 11.4691Z" fill="black"/>
<path d="M16.4115 9.99371C16.7916 9.99371 17.0998 9.68552 17.0998 9.30536C17.0998 8.92519 16.7916 8.617 16.4115 8.617C16.0313 8.617 15.7231 8.92519 15.7231 9.30536C15.7231 9.68552 16.0313 9.99371 16.4115 9.99371Z" fill="black"/>
<path d="M13.3956 9.99371C13.7758 9.99371 14.084 9.68552 14.084 9.30536C14.084 8.92519 13.7758 8.617 13.3956 8.617C13.0154 8.617 12.7072 8.92519 12.7072 9.30536C12.7072 9.68552 13.0154 9.99371 13.3956 9.99371Z" fill="black"/>
<mask id="path-8-inside-1" fill="white">
<path d="M4.04922 8.19097C4.70505 5.99372 6.34513 6 8.27903 6H15C16.6382 6 17.0687 6.95414 17.8146 8.19097C18.0294 8.5 18.5 8.5 19.1982 8.19097C18.7919 6.62023 17.0335 4.78072 14.9684 4.78072H8.27903C6.31155 4.78072 4.67252 5.89508 4.04922 8.19097Z"/>
</mask>
<path d="M4.04922 8.19097C4.70505 5.99372 6.34513 6 8.27903 6H15C16.6382 6 17.0687 6.95414 17.8146 8.19097C18.0294 8.5 18.5 8.5 19.1982 8.19097C18.7919 6.62023 17.0335 4.78072 14.9684 4.78072H8.27903C6.31155 4.78072 4.67252 5.89508 4.04922 8.19097Z" fill="black"/>
<path d="M4.04922 8.19097L-5.60145 5.57097L13.6315 11.051L4.04922 8.19097ZM19.1982 8.19097L23.2455 17.3354L31.0046 13.9012L28.8795 5.68651L19.1982 8.19097ZM17.8146 8.19097L9.25121 13.3552L9.4187 13.6329L9.60384 13.8992L17.8146 8.19097ZM13.6315 11.051C13.4674 11.6008 13.0679 12.584 12.1641 13.5932C11.2224 14.6446 10.1226 15.29 9.17295 15.6435C8.33198 15.9564 7.71905 15.9994 7.66617 16.0035C7.64312 16.0053 7.70072 16 8.27903 16V-4C7.86869 -4 4.96684 -4.13141 2.19675 -3.10042C-1.77647 -1.62165 -4.40314 1.54529 -5.53305 5.3309L13.6315 11.051ZM8.27903 16H15V-4H8.27903V16ZM28.8795 5.68651C28.1001 2.67361 26.3195 0.149904 24.2976 -1.62268C22.2177 -3.44607 19.0099 -5.21928 14.9684 -5.21928V14.7807C12.992 14.7807 11.696 13.9273 11.1131 13.4163C10.5883 12.9562 9.88999 12.1376 9.51692 10.6954L28.8795 5.68651ZM14.9684 -5.21928H8.27903V14.7807H14.9684V-5.21928ZM8.27903 -5.21928C5.37124 -5.21928 2.25066 -4.37347 -0.445632 -2.29475C-3.15118 -0.208885 -4.80428 2.63462 -5.60145 5.57097L13.6999 10.811C13.526 11.4514 13.0041 12.5898 11.7658 13.5445C10.5367 14.4921 9.21934 14.7807 8.27903 14.7807V-5.21928ZM15 16C14.4322 16 13.5095 15.9153 12.4314 15.5C11.3109 15.0684 10.4243 14.4347 9.78231 13.8125C9.21346 13.2612 8.91674 12.7932 8.90097 12.7689C8.88551 12.7451 8.89561 12.7593 8.96335 12.8727C8.9885 12.9147 9.15681 13.1986 9.25121 13.3552L26.3779 3.02678C26.3609 2.99847 25.9665 2.32638 25.68 1.88479C25.3225 1.33372 24.676 0.395306 23.7015 -0.549155C22.6539 -1.56448 21.3059 -2.51401 19.6206 -3.1632C17.9777 -3.79604 16.3869 -4 15 -4V16ZM9.60384 13.8992C12.0365 17.3983 15.7085 18.4227 18.3251 18.4227C20.5606 18.4227 22.3319 17.7397 23.2455 17.3354L15.151 -0.953417C15.3664 -1.04875 16.5532 -1.57726 18.3251 -1.57726C20.4782 -1.57726 23.8075 -0.707368 26.0253 2.48274L9.60384 13.8992Z" fill="black" mask="url(#path-8-inside-1)"/>
</g>
<defs>
<clipPath id="clip0">
<rect width="24" height="24" fill="white"/>
</clipPath>
</defs>
</svg>
