<?xml version="1.0" standalone="no"?>
<!DOCTYPE svg PUBLIC "-//W3C//DTD SVG 20010904//EN"
 "http://www.w3.org/TR/2001/REC-SVG-20010904/DTD/svg10.dtd">
<svg version="1.0" xmlns="http://www.w3.org/2000/svg"
 width="500.000000pt" height="500.000000pt" viewBox="0 0 500.000000 500.000000"
 preserveAspectRatio="xMidYMid meet">
<metadata>
Created by potrace 1.14, written by Peter Selinger 2001-2017
</metadata>
<g transform="translate(0.000000,500.000000) scale(0.100000,-0.100000)"
fill="#000000" stroke="none">
<path d="M1702 3621 c-144 -40 -241 -99 -344 -210 -101 -109 -159 -236 -179
-391 -18 -145 26 -328 109 -449 58 -85 1186 -1206 1213 -1206 25 0 1146 1108
1192 1178 56 84 94 167 111 240 22 96 21 246 -4 341 -55 217 -238 411 -454
483 -72 24 -96 27 -216 27 -120 0 -144 -3 -216 -27 -133 -44 -254 -135 -352
-263 -17 -22 -36 -52 -43 -67 -7 -15 -15 -27 -18 -27 -3 0 -19 24 -36 52 -76
131 -234 257 -380 304 -112 36 -279 43 -383 15z"/>
</g>
</svg>
