<svg width="24" height="24" viewBox="0 0 24 24" fill="none" xmlns="http://www.w3.org/2000/svg">
<g clip-path="url(#clip0)">
<path d="M5.25829 0.0587551C2.86812 0.486103 0.945056 2.25512 0.338819 4.58069C0.120176 5.42048 0.105269 5.91242 0.130114 12.427C0.145022 18.4099 0.149991 18.549 0.249374 19.0111C0.800951 21.5007 2.56997 23.2747 5.08436 23.861C5.41233 23.9356 5.82974 23.9505 8.51805 23.9654C11.3008 23.9853 11.589 23.9803 11.6635 23.9057C11.7381 23.8312 11.743 22.8722 11.743 11.9996C11.743 3.93967 11.7281 0.143231 11.6933 0.0736626C11.6437 -0.0157823 11.5592 -0.0207514 8.64725 -0.0157823C6.28193 -0.0108131 5.57134 0.00409435 5.25829 0.0587551ZM9.75537 11.9847V22.0522L7.73293 22.0274C5.86949 22.0075 5.67073 21.9976 5.29804 21.9032C3.69797 21.4907 2.51034 20.2584 2.17741 18.6533C2.06809 18.1515 2.06809 5.7882 2.17244 5.29625C2.47059 3.89992 3.43957 2.7421 4.74646 2.22034C5.40239 1.95697 5.70551 1.92716 7.83231 1.92219L9.75537 1.91722V11.9847Z" fill="white"/>
<path d="M5.68563 4.95337C5.37258 5.013 4.89554 5.25152 4.64211 5.47513C4.12035 5.92733 3.86195 6.56835 3.90171 7.32366C3.92158 7.71622 3.94643 7.82057 4.10544 8.1386C4.33899 8.62061 4.6918 8.97342 5.17381 9.21194C5.50674 9.37592 5.59122 9.3958 6.02354 9.4107C6.4161 9.42561 6.55524 9.4107 6.8186 9.32126C7.89691 8.95851 8.54787 7.91002 8.36401 6.83668C8.15034 5.55961 6.93786 4.70491 5.68563 4.95337Z" fill="white"/>
<path d="M14.163 0.0140314C14.1431 0.0289389 14.1282 5.41551 14.1282 11.9847C14.1282 22.8225 14.1332 23.9206 14.2077 23.9505C14.3419 24.0002 18.198 23.9803 18.675 23.9306C20.6925 23.702 22.4714 22.4746 23.4404 20.6509C23.5647 20.4174 23.7286 20.0248 23.8131 19.7813C24.1262 18.8471 24.1162 19.0956 24.1162 11.9549C24.1162 6.25529 24.1063 5.40557 24.0367 5.04282C23.5448 2.45389 21.572 0.501009 18.9781 0.0537847C18.6303 -0.00584519 18.0936 -0.0207527 16.3644 -0.0207527C15.1718 -0.0207527 14.1779 -0.00584519 14.163 0.0140314ZM19.4701 10.8369C20.2453 11.0406 20.8813 11.6319 21.1397 12.3872C21.3037 12.8543 21.2987 13.5401 21.1347 13.9674C20.8316 14.7526 20.2353 15.3041 19.4701 15.5079C18.2278 15.8309 16.906 15.0805 16.5432 13.8482C16.4339 13.4705 16.4389 12.8345 16.5631 12.4469C16.9358 11.2294 18.2278 10.5139 19.4701 10.8369Z" fill="white"/>
</g>
<defs>
<clipPath id="clip0">
<rect width="24" height="24" fill="white"/>
</clipPath>
</defs>
</svg>
