<svg width="24" height="24" viewBox="0 0 24 24" fill="none" xmlns="http://www.w3.org/2000/svg">
<path d="M22.718 10.35L20.88 8.872C20.7371 8.75681 20.6255 8.60746 20.5556 8.43774C20.4857 8.26803 20.4597 8.08343 20.48 7.901L20.735 5.556C20.7694 5.24462 20.7334 4.92948 20.6296 4.63389C20.5258 4.33829 20.357 4.06979 20.1355 3.84822C19.914 3.62665 19.6456 3.45768 19.3501 3.35379C19.0545 3.2499 18.7394 3.21375 18.428 3.248L16.08 3.5C15.8976 3.52021 15.713 3.49416 15.5433 3.42426C15.3736 3.35435 15.2242 3.24284 15.109 3.1L13.631 1.263C13.4285 1.02903 13.1781 0.841371 12.8966 0.712748C12.6152 0.584126 12.3094 0.517555 12 0.517555C11.6906 0.517555 11.3848 0.584126 11.1034 0.712748C10.8219 0.841371 10.5715 1.02903 10.369 1.263L8.891 3.1C8.77618 3.24334 8.62688 3.35522 8.45706 3.42517C8.28725 3.49513 8.10247 3.52087 7.92 3.5L5.575 3.248C5.26361 3.21361 4.94848 3.24963 4.65289 3.35339C4.35729 3.45715 4.08879 3.62601 3.86722 3.84748C3.64565 4.06896 3.47668 4.33738 3.37279 4.63293C3.2689 4.92848 3.23274 5.2436 3.267 5.555L3.522 7.9C3.54278 8.08246 3.51699 8.26721 3.44704 8.43701C3.37709 8.60681 3.26527 8.75612 3.122 8.871L1.282 10.35C1.03794 10.546 0.840987 10.7943 0.705658 11.0766C0.57033 11.3589 0.500076 11.668 0.500076 11.981C0.500076 12.294 0.57033 12.6031 0.705658 12.8854C0.840987 13.1677 1.03794 13.416 1.282 13.612L3.12 15.09C3.26319 15.2049 3.37497 15.3543 3.44491 15.524C3.51485 15.6938 3.54068 15.8785 3.52 16.061L3.265 18.406C3.23061 18.7174 3.26663 19.0325 3.37039 19.3281C3.47415 19.6237 3.64301 19.8922 3.86448 20.1138C4.08595 20.3353 4.35438 20.5043 4.64993 20.6082C4.94548 20.7121 5.2606 20.7483 5.572 20.714L7.918 20.459C8.10042 20.4387 8.28502 20.4647 8.45474 20.5346C8.62445 20.6045 8.77381 20.7161 8.889 20.859L10.369 22.7C10.565 22.9441 10.8133 23.141 11.0956 23.2763C11.3779 23.4117 11.687 23.4819 12 23.4819C12.313 23.4819 12.6221 23.4117 12.9044 23.2763C13.1867 23.141 13.435 22.9441 13.631 22.7L15.109 20.862C15.2242 20.7192 15.3736 20.6076 15.5433 20.5377C15.713 20.4678 15.8976 20.4418 16.08 20.462L18.425 20.717C18.7364 20.7514 19.0515 20.7154 19.3471 20.6116C19.6427 20.5078 19.9112 20.339 20.1328 20.1175C20.3543 19.896 20.5233 19.6276 20.6272 19.3321C20.7311 19.0365 20.7673 18.7214 20.733 18.41L20.478 16.064C20.4571 15.8815 20.4829 15.6968 20.5528 15.5269C20.6228 15.3571 20.7347 15.2078 20.878 15.093L22.716 13.615C22.9601 13.419 23.157 13.1707 23.2923 12.8884C23.4277 12.6061 23.4979 12.297 23.4979 11.984C23.4979 11.671 23.4277 11.3619 23.2923 11.0796C23.157 10.7973 22.9601 10.549 22.716 10.353L22.718 10.35ZM12.4 15.048C12.2464 15.2481 12.0521 15.4134 11.8299 15.5329C11.6078 15.6524 11.3628 15.7235 11.1112 15.7414C10.8596 15.7594 10.607 15.7238 10.3701 15.637C10.1333 15.5503 9.91748 15.4143 9.737 15.238L7.293 12.8C7.19749 12.7078 7.12131 12.5974 7.0689 12.4754C7.01649 12.3534 6.9889 12.2222 6.98775 12.0894C6.98659 11.9566 7.0119 11.8249 7.06218 11.702C7.11246 11.5792 7.18671 11.4675 7.2806 11.3736C7.3745 11.2797 7.48615 11.2055 7.60905 11.1552C7.73194 11.1049 7.86362 11.0796 7.9964 11.0807C8.12918 11.0819 8.2604 11.1095 8.3824 11.1619C8.50441 11.2143 8.61475 11.2905 8.707 11.386L10.958 13.637L14.867 8.426C15.0261 8.21383 15.263 8.07356 15.5256 8.03605C15.6556 8.01748 15.788 8.02469 15.9152 8.05729C16.0424 8.08988 16.1619 8.14721 16.267 8.226C16.3721 8.30479 16.4606 8.40351 16.5275 8.51651C16.5944 8.62951 16.6384 8.75458 16.6569 8.88458C16.6755 9.01458 16.6683 9.14697 16.6357 9.27418C16.6031 9.40139 16.5458 9.52094 16.467 9.626L12.4 15.048Z" fill="white"/>
</svg>
